<?xml version="1.0" encoding="UTF-8" standalone="no"?>
<!-- Created with Inkscape (http://www.inkscape.org/) -->

<svg
   width="25.4mm"
   height="25.4mm"
   viewBox="0 0 25.4 25.4"
   version="1.1"
   id="svg1"
   inkscape:version="1.4.3 (0d15f75, 2025-12-25)"
   sodipodi:docname="buttongradient.svg"
   xmlns:inkscape="http://www.inkscape.org/namespaces/inkscape"
   xmlns:sodipodi="http://sodipodi.sourceforge.net/DTD/sodipodi-0.dtd"
   xmlns:xlink="http://www.w3.org/1999/xlink"
   xmlns="http://www.w3.org/2000/svg"
   xmlns:svg="http://www.w3.org/2000/svg">
  <sodipodi:namedview
     id="namedview1"
     pagecolor="#ffffff"
     bordercolor="#000000"
     borderopacity="0.25"
     inkscape:showpageshadow="2"
     inkscape:pageopacity="0.0"
     inkscape:pagecheckerboard="0"
     inkscape:deskcolor="#d1d1d1"
     inkscape:document-units="mm"
     inkscape:zoom="3.1244438"
     inkscape:cx="60.970853"
     inkscape:cy="65.291622"
     inkscape:window-width="1600"
     inkscape:window-height="822"
     inkscape:window-x="-8"
     inkscape:window-y="-8"
     inkscape:window-maximized="1"
     inkscape:current-layer="layer1" />
  <defs
     id="defs1">
    <linearGradient
       id="linearGradient1"
       inkscape:collect="always">
      <stop
         style="stop-color:#26ddfa;stop-opacity:1;"
         offset="0"
         id="stop1" />
      <stop
         style="stop-color:#05c2e0;stop-opacity:1;"
         offset="1"
         id="stop2" />
    </linearGradient>
    <linearGradient
       inkscape:collect="always"
       xlink:href="#linearGradient1"
       id="linearGradient2"
       x1="12.7"
       y1="0.5291661"
       x2="12.7"
       y2="24.870832"
       gradientUnits="userSpaceOnUse" />
  </defs>
  <g
     inkscape:label="Layer 1"
     inkscape:groupmode="layer"
     id="layer1">
    <path
       stroke="none"
       fill="#1ea7e1"
       d="m 0.529167,1.336145 q 0,-0.806979 0.806979,-0.806979 h 22.714479 q 0.820208,0 0.820208,0.806979 v 22.727708 q 0,0.80698 -0.820208,0.80698 H 1.336146 q -0.806979,0 -0.806979,-0.80698 V 1.336145"
       id="path107"
       style="fill:url(#linearGradient2);fill-opacity:1;stroke-width:0.264583" />
    <path
       stroke="none"
       fill="#35baf3"
       d="m 0.529167,1.336145 v 22.727708 q 0,0.80698 0.806979,0.80698 h 22.714479 q 0.820208,0 0.820208,-0.80698 V 1.336145 q 0,-0.806979 -0.820208,-0.806979 H 1.336146 q -0.806979,0 -0.806979,0.806979 M 1.336146,0 H 24.050625 Q 25.4,0 25.4,1.336145 v 22.727708 q 0,1.336146 -1.349375,1.336146 H 1.336146 Q 0,25.399999 0,24.063853 V 1.336145 Q 0,0 1.336146,0"
       id="path108"
       style="fill:#50757a;fill-opacity:1;stroke-width:0.264583" />
  </g>
</svg>
